<svg fill="#EEEEEE" width="210" height="70" viewBox="0 0 314 104" xmlns="http://www.w3.org/2000/svg" routerLink="">
  <g filter="url(#filter0_bd_4_6)">
    <path
      d="M90.032 73.44C84.8 73.44 80.12 72.168 75.992 69.624C71.864 67.08 68.648 63.528 66.344 58.968C64.04 54.36 62.888 49.104 62.888 43.2C62.888 37.296 64.04 32.064 66.344 27.504C68.648 22.896 71.864 19.32 75.992 16.776C80.12 14.232 84.8 12.96 90.032 12.96C95.264 12.96 99.944 14.232 104.072 16.776C108.2 19.32 111.416 22.896 113.72 27.504C116.024 32.064 117.176 37.296 117.176 43.2C117.176 49.104 116.024 54.36 113.72 58.968C111.416 63.528 108.2 67.08 104.072 69.624C99.944 72.168 95.264 73.44 90.032 73.44ZM90.032 71.784C93.488 71.784 96.584 70.872 99.32 69.048C102.104 67.224 104.288 64.584 105.872 61.128C107.456 57.624 108.248 53.496 108.248 48.744V37.656C108.248 32.904 107.456 28.8 105.872 25.344C104.288 21.84 102.104 19.176 99.32 17.352C96.584 15.528 93.488 14.616 90.032 14.616C86.528 14.616 83.408 15.528 80.672 17.352C77.936 19.176 75.776 21.84 74.192 25.344C72.608 28.8 71.816 32.904 71.816 37.656V48.744C71.816 53.496 72.608 57.624 74.192 61.128C75.776 64.584 77.936 67.224 80.672 69.048C83.408 70.872 86.528 71.784 90.032 71.784ZM135.126 72V70.488L141.75 69.408V16.992L135.126 15.984V14.4H156.294V15.984L149.67 16.992V63.648L177.75 19.008V16.992L171.054 15.984V14.4H192.366V15.984L185.67 16.992V69.408L192.366 70.488V72H171.054V70.488L177.75 69.408V22.392L149.67 67.032V69.408L156.294 70.488V72H135.126ZM230.615 73.44C228.215 73.44 226.031 73.104 224.063 72.432C222.095 71.808 220.463 71.112 219.167 70.344C217.871 69.576 217.223 69.144 217.223 69.048L212.471 72.72H210.959V54.216H212.471L216.647 66.24C216.647 66.384 217.247 66.936 218.447 67.896C219.647 68.856 221.279 69.744 223.343 70.56C225.407 71.376 227.831 71.784 230.615 71.784C234.695 71.784 237.719 70.512 239.687 67.968C241.655 65.424 242.639 61.848 242.639 57.24V56.448C242.639 51.936 241.535 48.504 239.327 46.152C237.119 43.752 233.615 42.552 228.815 42.552H223.631V40.968H228.815C232.655 40.968 235.511 39.912 237.383 37.8C239.303 35.64 240.263 32.52 240.263 28.44V28.008C240.263 23.496 239.351 20.136 237.527 17.928C235.751 15.72 233.207 14.616 229.895 14.616C227.543 14.616 225.503 14.928 223.775 15.552C222.095 16.128 220.751 16.776 219.743 17.496C218.783 18.216 218.303 18.624 218.303 18.72L213.839 30.816H212.327V12.96H213.839L218.663 16.272C218.663 16.224 219.191 15.912 220.247 15.336C221.351 14.712 222.743 14.16 224.423 13.68C226.103 13.2 227.951 12.96 229.967 12.96C236.591 12.96 241.391 14.28 244.367 16.92C247.391 19.56 248.903 23.208 248.903 27.864C248.903 31.416 247.751 34.44 245.447 36.936C243.191 39.432 239.807 40.968 235.295 41.544C240.911 42.408 244.967 44.184 247.463 46.872C249.959 49.56 251.207 52.992 251.207 57.168C251.207 62.496 249.479 66.552 246.023 69.336C242.567 72.072 237.431 73.44 230.615 73.44Z"/>
  </g>
  <path
    d="M16.896 98.32C15.7333 98.32 14.6933 98.0373 13.776 97.472C12.8587 96.9067 12.144 96.1173 11.632 95.104C11.12 94.08 10.864 92.912 10.864 91.6C10.864 90.288 11.12 89.1253 11.632 88.112C12.144 87.088 12.8587 86.2933 13.776 85.728C14.6933 85.1627 15.7333 84.88 16.896 84.88C18.0587 84.88 19.0987 85.1627 20.016 85.728C20.9333 86.2933 21.648 87.088 22.16 88.112C22.672 89.1253 22.928 90.288 22.928 91.6C22.928 92.912 22.672 94.08 22.16 95.104C21.648 96.1173 20.9333 96.9067 20.016 97.472C19.0987 98.0373 18.0587 98.32 16.896 98.32ZM16.896 97.952C17.664 97.952 18.352 97.7493 18.96 97.344C19.5787 96.9387 20.064 96.352 20.416 95.584C20.768 94.8053 20.944 93.888 20.944 92.832V90.368C20.944 89.312 20.768 88.4 20.416 87.632C20.064 86.8533 19.5787 86.2613 18.96 85.856C18.352 85.4507 17.664 85.248 16.896 85.248C16.1173 85.248 15.424 85.4507 14.816 85.856C14.208 86.2613 13.728 86.8533 13.376 87.632C13.024 88.4 12.848 89.312 12.848 90.368V92.832C12.848 93.888 13.024 94.8053 13.376 95.584C13.728 96.352 14.208 96.9387 14.816 97.344C15.424 97.7493 16.1173 97.952 16.896 97.952ZM28.8849 98.16C27.6155 98.16 26.5809 97.712 25.7809 96.816C24.9915 95.92 24.5969 94.5387 24.5969 92.672C24.5969 90.6133 24.9969 89.04 25.7969 87.952C26.5969 86.864 27.7169 86.32 29.1569 86.32H30.4369C30.9702 86.32 31.3649 86.2293 31.6209 86.048C31.8769 85.856 32.0049 85.5733 32.0049 85.2H32.3889C32.3889 85.872 32.3142 86.4053 32.1649 86.8C32.0262 87.1947 31.7969 87.4827 31.4769 87.664C31.1675 87.8347 30.7409 87.92 30.1969 87.92H28.8849C26.3462 87.92 25.0769 89.504 25.0769 92.672H25.1729C25.4075 91.7653 25.8609 91.0453 26.5329 90.512C27.2049 89.9787 27.9889 89.712 28.8849 89.712C29.5995 89.712 30.2609 89.888 30.8689 90.24C31.4769 90.592 31.9622 91.088 32.3249 91.728C32.6875 92.368 32.8689 93.104 32.8689 93.936C32.8689 94.768 32.6875 95.504 32.3249 96.144C31.9622 96.784 31.4769 97.28 30.8689 97.632C30.2609 97.984 29.5995 98.16 28.8849 98.16ZM28.8849 97.776C29.6315 97.776 30.1862 97.504 30.5489 96.96C30.9222 96.416 31.1089 95.6747 31.1089 94.736V93.136C31.1089 92.1973 30.9222 91.456 30.5489 90.912C30.1862 90.368 29.6315 90.096 28.8849 90.096C28.1382 90.096 27.5782 90.368 27.2049 90.912C26.8422 91.456 26.6609 92.1973 26.6609 93.136V94.736C26.6609 95.6747 26.8422 96.416 27.2049 96.96C27.5782 97.504 28.1382 97.776 28.8849 97.776ZM35.9145 97.68L37.0345 97.52V90.112H35.7385L34.3465 92.752H33.8985L34.1385 89.712H39.7545V90.032L38.6345 90.192V93.2H40.6505C41.6105 93.2 42.3625 93.4027 42.9065 93.808C43.4612 94.2133 43.7385 94.8107 43.7385 95.6C43.7385 96.3893 43.4665 96.9867 42.9225 97.392C42.3785 97.7973 41.6212 98 40.6505 98H35.9145V97.68ZM40.1705 97.6C40.7572 97.6 41.2105 97.4293 41.5305 97.088C41.8505 96.7467 42.0105 96.256 42.0105 95.616V95.584C42.0105 94.944 41.8505 94.4533 41.5305 94.112C41.2105 93.7707 40.7572 93.6 40.1705 93.6H38.6345V97.6H40.1705ZM48.912 98.16C48.1227 98.16 47.408 97.984 46.768 97.632C46.128 97.2693 45.6213 96.7627 45.248 96.112C44.8747 95.4613 44.688 94.7093 44.688 93.856C44.688 93.0027 44.8693 92.256 45.232 91.616C45.6053 90.9653 46.1013 90.464 46.72 90.112C47.3493 89.7493 48.048 89.568 48.816 89.568C49.488 89.568 50.0907 89.7173 50.624 90.016C51.1573 90.3147 51.5733 90.7307 51.872 91.264C52.1707 91.7867 52.3253 92.3893 52.336 93.072H46.448V94.656C46.448 95.5947 46.656 96.3573 47.072 96.944C47.4987 97.52 48.112 97.808 48.912 97.808C49.648 97.808 50.2987 97.6 50.864 97.184C51.4293 96.768 51.776 96.2293 51.904 95.568H52.272C52.1227 96.3573 51.744 96.9867 51.136 97.456C50.528 97.9253 49.7867 98.16 48.912 98.16ZM50.576 92.672C50.576 91.744 50.432 91.056 50.144 90.608C49.856 90.1493 49.408 89.92 48.8 89.92C48.0853 89.92 47.5307 90.1707 47.136 90.672C46.7413 91.1733 46.5173 91.84 46.464 92.672H50.576ZM60.8568 98.16C60.3874 98.16 60.0408 98.064 59.8168 97.872C59.5928 97.6693 59.4381 97.3333 59.3528 96.864L59.0328 95.168C58.9368 94.6667 58.7768 94.3147 58.5528 94.112C58.3288 93.9093 58.0248 93.8027 57.6408 93.792H56.1528V97.504L57.3048 97.68V98H53.4008V97.68L54.5528 97.504V90.208L53.4008 90.048V89.712H57.3048V90.048L56.1528 90.208V93.424H57.6568C57.9234 93.4027 58.1368 93.312 58.2968 93.152C58.4568 92.9813 58.5901 92.6933 58.6968 92.288L58.9848 91.136C59.1128 90.6133 59.2834 90.224 59.4968 89.968C59.7208 89.7013 60.0621 89.568 60.5208 89.568C60.9048 89.568 61.2034 89.6747 61.4167 89.888C61.6301 90.0907 61.7368 90.3413 61.7368 90.64C61.7368 90.9173 61.6461 91.1573 61.4648 91.36C61.2941 91.552 61.0594 91.648 60.7608 91.648C60.6008 91.648 60.4461 91.6213 60.2968 91.568C60.3288 91.472 60.3448 91.3813 60.3448 91.296C60.3448 91.1573 60.3021 91.04 60.2168 90.944C60.1314 90.848 60.0248 90.8 59.8968 90.8C59.6408 90.8 59.4701 90.9493 59.3848 91.248L59.0808 92.4C58.9421 92.9013 58.7608 93.2533 58.5368 93.456C59.2408 93.52 59.7528 93.6907 60.0728 93.968C60.4034 94.2453 60.6221 94.6667 60.7288 95.232L61.0008 96.608C61.0754 96.96 61.1501 97.1947 61.2248 97.312C61.3101 97.4293 61.4328 97.488 61.5928 97.488C61.7741 97.488 61.9608 97.392 62.1528 97.2L62.3928 97.44C62.1901 97.6747 61.9501 97.856 61.6728 97.984C61.3954 98.1013 61.1234 98.16 60.8568 98.16ZM64.5845 98V97.68L65.8645 97.52V90.112H64.4885L63.0965 92.752H62.6485L62.8885 89.712H70.4405L70.6805 92.752H70.2325L68.8245 90.112H67.4645V97.52L68.7445 97.68V98H64.5845ZM71.4476 97.68L72.5676 97.52V90.192L71.4476 90.032V89.712H75.2876V90.032L74.1676 90.192V93.2H76.1836C77.1543 93.2 77.9116 93.4027 78.4556 93.808C78.9996 94.2133 79.2716 94.8107 79.2716 95.6C79.2716 96.3893 78.9996 96.9867 78.4556 97.392C77.9116 97.7973 77.1543 98 76.1836 98H71.4476V97.68ZM79.4636 98V97.68L80.5836 97.52V90.192L79.4636 90.032V89.712H83.3036V90.032L82.1836 90.192V97.52L83.3036 97.68V98H79.4636ZM75.7036 97.6C76.2903 97.6 76.7436 97.4293 77.0636 97.088C77.3836 96.7467 77.5436 96.256 77.5436 95.616V95.584C77.5436 94.944 77.3836 94.4533 77.0636 94.112C76.7436 93.7707 76.2903 93.6 75.7036 93.6H74.1676V97.6H75.7036ZM87.9945 98V97.68L89.1145 97.52V90.192L87.9945 90.032V89.712H91.6745V90.032L90.7145 90.192V96.416L94.7625 90.512V90.192L93.8025 90.032V89.712H97.4825V90.032L96.3625 90.192V97.52L97.4825 97.68V98H93.8025V97.68L94.7625 97.52V91.184L90.7145 97.104V97.52L91.6745 97.68V98H87.9945ZM102.754 98.16C101.986 98.16 101.287 97.984 100.658 97.632C100.029 97.2693 99.5272 96.7627 99.1539 96.112C98.7912 95.4507 98.6099 94.6987 98.6099 93.856C98.6099 92.9707 98.8019 92.2027 99.1859 91.552C99.5805 90.9013 100.093 90.4107 100.722 90.08C101.351 89.7387 102.029 89.568 102.754 89.568C103.362 89.568 103.917 89.6747 104.418 89.888C104.919 90.0907 105.314 90.3787 105.602 90.752C105.901 91.1253 106.05 91.5467 106.05 92.016C106.05 92.368 105.959 92.64 105.778 92.832C105.597 93.0133 105.357 93.104 105.058 93.104C104.77 93.104 104.53 93.008 104.338 92.816C104.146 92.624 104.05 92.384 104.05 92.096C104.21 91.9893 104.322 91.872 104.386 91.744C104.45 91.616 104.482 91.456 104.482 91.264C104.482 90.8693 104.322 90.5493 104.002 90.304C103.693 90.048 103.277 89.92 102.754 89.92C101.986 89.92 101.394 90.1973 100.978 90.752C100.573 91.296 100.37 92.064 100.37 93.056V94.656C100.37 95.6053 100.567 96.368 100.962 96.944C101.367 97.52 101.965 97.808 102.754 97.808C103.479 97.808 104.109 97.6053 104.642 97.2C105.186 96.784 105.522 96.24 105.65 95.568H106.018C105.869 96.3573 105.495 96.9867 104.898 97.456C104.311 97.9253 103.597 98.16 102.754 98.16ZM108.944 98V97.68L110.224 97.52V90.112H108.848L107.456 92.752H107.008L107.248 89.712H114.8L115.04 92.752H114.592L113.184 90.112H111.824V97.52L113.104 97.68V98H108.944ZM120.207 98.16C119.439 98.16 118.74 97.984 118.111 97.632C117.482 97.2693 116.98 96.7627 116.607 96.112C116.244 95.4507 116.063 94.6987 116.063 93.856C116.063 93.0133 116.244 92.2667 116.607 91.616C116.98 90.9653 117.482 90.464 118.111 90.112C118.74 89.7493 119.439 89.568 120.207 89.568C120.975 89.568 121.674 89.7493 122.303 90.112C122.932 90.464 123.428 90.9653 123.791 91.616C124.164 92.2667 124.351 93.0133 124.351 93.856C124.351 94.6987 124.164 95.4507 123.791 96.112C123.428 96.7627 122.932 97.2693 122.303 97.632C121.674 97.984 120.975 98.16 120.207 98.16ZM120.207 97.808C120.996 97.808 121.588 97.52 121.983 96.944C122.388 96.368 122.591 95.6053 122.591 94.656V93.056C122.591 92.1067 122.388 91.3493 121.983 90.784C121.588 90.208 120.996 89.92 120.207 89.92C119.418 89.92 118.82 90.208 118.415 90.784C118.02 91.3493 117.823 92.1067 117.823 93.056V94.656C117.823 95.6053 118.02 96.368 118.415 96.944C118.82 97.52 119.418 97.808 120.207 97.808ZM125.367 102.208L126.487 102.048V90.208L125.367 90.048V89.728H128.087V91.408C128.354 90.832 128.711 90.384 129.159 90.064C129.618 89.7333 130.162 89.568 130.791 89.568C131.549 89.568 132.215 89.7493 132.791 90.112C133.367 90.464 133.815 90.9653 134.135 91.616C134.455 92.256 134.615 93.008 134.615 93.872C134.615 94.736 134.455 95.4933 134.135 96.144C133.815 96.784 133.367 97.28 132.791 97.632C132.215 97.984 131.549 98.16 130.791 98.16C130.162 98.16 129.618 98 129.159 97.68C128.711 97.3493 128.354 96.9013 128.087 96.336V102.048L129.591 102.208V102.528H125.367V102.208ZM130.631 97.76C132.114 97.76 132.855 96.7307 132.855 94.672V93.072C132.855 91.0027 132.114 89.968 130.631 89.968C130.162 89.968 129.735 90.1067 129.351 90.384C128.967 90.6507 128.663 91.0133 128.439 91.472C128.215 91.9307 128.098 92.4267 128.087 92.96V94.672C128.087 95.216 128.194 95.728 128.407 96.208C128.631 96.6773 128.935 97.056 129.319 97.344C129.714 97.6213 130.151 97.76 130.631 97.76ZM135.729 98V97.68L136.849 97.52V90.192L135.729 90.032V89.712H139.409V90.032L138.449 90.192V96.416L142.497 90.512V90.192L141.537 90.032V89.712H145.217V90.032L144.097 90.192V97.52L145.217 97.68V98H141.537V97.68L142.497 97.52V91.184L138.449 97.104V97.52L139.409 97.68V98H135.729ZM150.648 97.68L152.248 97.52V94.416C151.96 94.5653 151.592 94.6987 151.144 94.816C150.707 94.9333 150.206 94.992 149.64 94.992C148.766 94.992 148.083 94.8107 147.592 94.448C147.112 94.0853 146.872 93.4987 146.872 92.688V90.192L145.752 90.032V89.712H149.432V90.032L148.472 90.192V92.688C148.472 93.2853 148.595 93.7387 148.84 94.048C149.086 94.3573 149.491 94.512 150.056 94.512C150.547 94.512 150.974 94.4587 151.336 94.352C151.71 94.2453 152.014 94.1227 152.248 93.984V90.192L151.288 90.032V89.712H154.968V90.032L153.848 90.192V97.52L154.968 97.68V98H150.648V97.68ZM160.318 98.16C159.529 98.16 158.814 97.984 158.174 97.632C157.534 97.2693 157.028 96.7627 156.654 96.112C156.281 95.4613 156.094 94.7093 156.094 93.856C156.094 93.0027 156.276 92.256 156.638 91.616C157.012 90.9653 157.508 90.464 158.126 90.112C158.756 89.7493 159.454 89.568 160.222 89.568C160.894 89.568 161.497 89.7173 162.03 90.016C162.564 90.3147 162.98 90.7307 163.278 91.264C163.577 91.7867 163.732 92.3893 163.742 93.072H157.854V94.656C157.854 95.5947 158.062 96.3573 158.478 96.944C158.905 97.52 159.518 97.808 160.318 97.808C161.054 97.808 161.705 97.6 162.27 97.184C162.836 96.768 163.182 96.2293 163.31 95.568H163.678C163.529 96.3573 163.15 96.9867 162.542 97.456C161.934 97.9253 161.193 98.16 160.318 98.16ZM161.982 92.672C161.982 91.744 161.838 91.056 161.55 90.608C161.262 90.1493 160.814 89.92 160.206 89.92C159.492 89.92 158.937 90.1707 158.542 90.672C158.148 91.1733 157.924 91.84 157.87 92.672H161.982ZM169.207 98.16C168.439 98.16 167.74 97.984 167.111 97.632C166.482 97.2693 165.98 96.7627 165.607 96.112C165.244 95.4507 165.063 94.6987 165.063 93.856C165.063 92.9707 165.255 92.2027 165.639 91.552C166.034 90.9013 166.546 90.4107 167.175 90.08C167.804 89.7387 168.482 89.568 169.207 89.568C169.815 89.568 170.37 89.6747 170.871 89.888C171.372 90.0907 171.767 90.3787 172.055 90.752C172.354 91.1253 172.503 91.5467 172.503 92.016C172.503 92.368 172.412 92.64 172.231 92.832C172.05 93.0133 171.81 93.104 171.511 93.104C171.223 93.104 170.983 93.008 170.791 92.816C170.599 92.624 170.503 92.384 170.503 92.096C170.663 91.9893 170.775 91.872 170.839 91.744C170.903 91.616 170.935 91.456 170.935 91.264C170.935 90.8693 170.775 90.5493 170.455 90.304C170.146 90.048 169.73 89.92 169.207 89.92C168.439 89.92 167.847 90.1973 167.431 90.752C167.026 91.296 166.823 92.064 166.823 93.056V94.656C166.823 95.6053 167.02 96.368 167.415 96.944C167.82 97.52 168.418 97.808 169.207 97.808C169.932 97.808 170.562 97.6053 171.095 97.2C171.639 96.784 171.975 96.24 172.103 95.568H172.471C172.322 96.3573 171.948 96.9867 171.351 97.456C170.764 97.9253 170.05 98.16 169.207 98.16ZM181.013 98.16C180.544 98.16 180.197 98.064 179.973 97.872C179.749 97.6693 179.594 97.3333 179.509 96.864L179.189 95.168C179.093 94.6667 178.933 94.3147 178.709 94.112C178.485 93.9093 178.181 93.8027 177.797 93.792H176.309V97.504L177.461 97.68V98H173.557V97.68L174.709 97.504V90.208L173.557 90.048V89.712H177.461V90.048L176.309 90.208V93.424H177.813C178.08 93.4027 178.293 93.312 178.453 93.152C178.613 92.9813 178.746 92.6933 178.853 92.288L179.141 91.136C179.269 90.6133 179.44 90.224 179.653 89.968C179.877 89.7013 180.218 89.568 180.677 89.568C181.061 89.568 181.36 89.6747 181.573 89.888C181.786 90.0907 181.893 90.3413 181.893 90.64C181.893 90.9173 181.802 91.1573 181.621 91.36C181.45 91.552 181.216 91.648 180.917 91.648C180.757 91.648 180.602 91.6213 180.453 91.568C180.485 91.472 180.501 91.3813 180.501 91.296C180.501 91.1573 180.458 91.04 180.373 90.944C180.288 90.848 180.181 90.8 180.053 90.8C179.797 90.8 179.626 90.9493 179.541 91.248L179.237 92.4C179.098 92.9013 178.917 93.2533 178.693 93.456C179.397 93.52 179.909 93.6907 180.229 93.968C180.56 94.2453 180.778 94.6667 180.885 95.232L181.157 96.608C181.232 96.96 181.306 97.1947 181.381 97.312C181.466 97.4293 181.589 97.488 181.749 97.488C181.93 97.488 182.117 97.392 182.309 97.2L182.549 97.44C182.346 97.6747 182.106 97.856 181.829 97.984C181.552 98.1013 181.28 98.16 181.013 98.16ZM187.301 98.16C186.533 98.16 185.834 97.984 185.205 97.632C184.575 97.2693 184.074 96.7627 183.701 96.112C183.338 95.4507 183.157 94.6987 183.157 93.856C183.157 93.0133 183.338 92.2667 183.701 91.616C184.074 90.9653 184.575 90.464 185.205 90.112C185.834 89.7493 186.533 89.568 187.301 89.568C188.069 89.568 188.767 89.7493 189.397 90.112C190.026 90.464 190.522 90.9653 190.885 91.616C191.258 92.2667 191.445 93.0133 191.445 93.856C191.445 94.6987 191.258 95.4507 190.885 96.112C190.522 96.7627 190.026 97.2693 189.397 97.632C188.767 97.984 188.069 98.16 187.301 98.16ZM187.301 97.808C188.09 97.808 188.682 97.52 189.077 96.944C189.482 96.368 189.685 95.6053 189.685 94.656V93.056C189.685 92.1067 189.482 91.3493 189.077 90.784C188.682 90.208 188.09 89.92 187.301 89.92C186.511 89.92 185.914 90.208 185.509 90.784C185.114 91.3493 184.917 92.1067 184.917 93.056V94.656C184.917 95.6053 185.114 96.368 185.509 96.944C185.914 97.52 186.511 97.808 187.301 97.808ZM192.557 98V97.68L193.677 97.52V90.192L192.557 90.032V89.712H196.237V90.032L195.277 90.192V96.416L199.325 90.512V90.192L198.365 90.032V89.712H202.045V90.032L200.925 90.192V97.52L202.045 97.68V98H198.365V97.68L199.325 97.52V91.184L195.277 97.104V97.52L196.237 97.68V98H192.557ZM197.357 88.688C196.546 88.688 195.869 88.5493 195.325 88.272C194.792 87.984 194.525 87.552 194.525 86.976C194.525 86.7093 194.616 86.48 194.797 86.288C194.989 86.096 195.218 86 195.485 86C195.752 86 195.986 86.096 196.189 86.288C196.392 86.48 196.493 86.7093 196.493 86.976C196.333 87.0613 196.205 87.1627 196.109 87.28C196.024 87.3867 195.981 87.4987 195.981 87.616C195.981 87.8187 196.098 87.9947 196.333 88.144C196.578 88.2827 196.92 88.352 197.357 88.352C197.773 88.352 198.104 88.2773 198.349 88.128C198.594 87.9787 198.717 87.8027 198.717 87.6C198.717 87.3547 198.552 87.1467 198.221 86.976C198.221 86.7093 198.317 86.48 198.509 86.288C198.712 86.096 198.952 86 199.229 86C199.496 86 199.72 86.096 199.901 86.288C200.082 86.48 200.173 86.7093 200.173 86.976C200.173 87.552 199.901 87.984 199.357 88.272C198.824 88.5493 198.157 88.688 197.357 88.688ZM210.297 98.16C209.113 98.16 208.249 97.9947 207.705 97.664C207.171 97.3227 206.905 96.896 206.905 96.384C206.905 96.064 206.995 95.808 207.177 95.616C207.369 95.4133 207.619 95.312 207.929 95.312C208.131 95.312 208.313 95.3653 208.473 95.472C208.633 95.5787 208.745 95.728 208.809 95.92C208.627 96.1333 208.537 96.3573 208.537 96.592C208.537 96.9547 208.697 97.2587 209.017 97.504C209.347 97.7387 209.774 97.856 210.297 97.856C210.937 97.856 211.449 97.6907 211.833 97.36C212.227 97.0187 212.425 96.5227 212.425 95.872V95.664C212.425 95.0773 212.206 94.6293 211.769 94.32C211.342 94 210.809 93.84 210.169 93.84H209.273V93.456H210.169C210.777 93.456 211.241 93.312 211.561 93.024C211.881 92.7253 212.041 92.2933 212.041 91.728V91.664C212.041 90.4693 211.475 89.872 210.345 89.872C209.737 89.872 209.177 90.0213 208.664 90.32L207.705 92.608H207.368L207.545 89.568L208.505 90.032C209.102 89.7227 209.726 89.568 210.377 89.568C211.571 89.568 212.435 89.744 212.969 90.096C213.502 90.4373 213.769 90.9547 213.769 91.648C213.769 92.1493 213.582 92.5653 213.209 92.896C212.846 93.2267 212.297 93.4507 211.561 93.568V93.584C212.425 93.6693 213.07 93.8987 213.497 94.272C213.934 94.6453 214.153 95.1413 214.153 95.76C214.153 96.5173 213.833 97.1093 213.193 97.536C212.553 97.952 211.587 98.16 210.297 98.16ZM215.26 98V97.68L216.38 97.52V90.192L215.26 90.032V89.712H218.94V90.032L217.98 90.192V93.6H221.932V90.192L220.972 90.032V89.712H224.652V90.032L223.532 90.192V97.52L224.652 97.68V98H220.972V97.68L221.932 97.52V94H217.98V97.52L218.94 97.68V98H215.26ZM228.15 98.16C227.467 98.16 226.907 97.984 226.47 97.632C226.033 97.2693 225.814 96.736 225.814 96.032C225.814 95.0293 226.235 94.32 227.078 93.904C227.921 93.4773 228.897 93.264 230.006 93.264H231.078V92.032C231.078 91.4773 231.014 91.0507 230.886 90.752C230.769 90.4427 230.582 90.2293 230.326 90.112C230.07 89.984 229.723 89.92 229.286 89.92C228.785 89.92 228.411 90.0213 228.166 90.224C227.921 90.416 227.798 90.6773 227.798 91.008C227.798 91.3173 227.947 91.52 228.246 91.616C228.246 91.8827 228.145 92.1173 227.942 92.32C227.739 92.5227 227.499 92.624 227.222 92.624C226.923 92.624 226.683 92.544 226.502 92.384C226.321 92.2133 226.23 91.9573 226.23 91.616C226.23 90.9973 226.539 90.5013 227.158 90.128C227.777 89.7547 228.55 89.568 229.478 89.568C231.611 89.568 232.678 90.496 232.678 92.352V96.928C232.678 97.1627 232.726 97.344 232.822 97.472C232.929 97.5893 233.078 97.648 233.27 97.648C233.451 97.648 233.595 97.5893 233.702 97.472C233.809 97.344 233.862 97.1733 233.862 96.96H234.198C234.198 97.3333 234.075 97.6267 233.83 97.84C233.595 98.0533 233.265 98.16 232.838 98.16C232.347 98.16 231.931 98.0213 231.59 97.744C231.259 97.456 231.089 97.0133 231.078 96.416C230.822 96.96 230.427 97.3867 229.894 97.696C229.371 98.0053 228.79 98.16 228.15 98.16ZM229.03 97.456C229.318 97.456 229.611 97.3707 229.91 97.2C230.219 97.0293 230.481 96.784 230.694 96.464C230.907 96.1333 231.035 95.7387 231.078 95.28V93.616H230.006C229.131 93.616 228.475 93.8133 228.038 94.208C227.611 94.592 227.398 95.136 227.398 95.84C227.398 96.4267 227.537 96.8427 227.814 97.088C228.091 97.3333 228.497 97.456 229.03 97.456ZM238.836 97.68L240.436 97.52V94.416C240.148 94.5653 239.78 94.6987 239.332 94.816C238.894 94.9333 238.393 94.992 237.828 94.992C236.953 94.992 236.27 94.8107 235.78 94.448C235.3 94.0853 235.06 93.4987 235.06 92.688V90.192L233.94 90.032V89.712H237.62V90.032L236.66 90.192V92.688C236.66 93.2853 236.782 93.7387 237.028 94.048C237.273 94.3573 237.678 94.512 238.244 94.512C238.734 94.512 239.161 94.4587 239.524 94.352C239.897 94.2453 240.201 94.1227 240.436 93.984V90.192L239.476 90.032V89.712H243.156V90.032L242.036 90.192V97.52L243.156 97.68V98H238.836V97.68ZM244.026 98V97.68L245.146 97.52V90.192L244.026 90.032V89.712H247.706V90.032L246.746 90.192V96.416L250.794 90.512V90.192L249.834 90.032V89.712H253.514V90.032L252.394 90.192V97.52L253.514 97.68V98H249.834V97.68L250.794 97.52V91.184L246.746 97.104V97.52L247.706 97.68V98H244.026ZM254.385 98V97.68L255.601 97.2V90.176L254.481 90.032V89.712H257.585L260.113 95.696L262.625 89.712H265.569V90.032L264.449 90.192V97.52L265.569 97.68V98H261.889V97.68L262.849 97.52V90.24L259.537 98H259.345L256.001 90.24V97.2L257.217 97.68V98H254.385ZM270.832 98.16C270.064 98.16 269.365 97.984 268.736 97.632C268.107 97.2693 267.605 96.7627 267.232 96.112C266.869 95.4507 266.688 94.6987 266.688 93.856C266.688 93.0133 266.869 92.2667 267.232 91.616C267.605 90.9653 268.107 90.464 268.736 90.112C269.365 89.7493 270.064 89.568 270.832 89.568C271.6 89.568 272.299 89.7493 272.928 90.112C273.557 90.464 274.053 90.9653 274.416 91.616C274.789 92.2667 274.976 93.0133 274.976 93.856C274.976 94.6987 274.789 95.4507 274.416 96.112C274.053 96.7627 273.557 97.2693 272.928 97.632C272.299 97.984 271.6 98.16 270.832 98.16ZM270.832 97.808C271.621 97.808 272.213 97.52 272.608 96.944C273.013 96.368 273.216 95.6053 273.216 94.656V93.056C273.216 92.1067 273.013 91.3493 272.608 90.784C272.213 90.208 271.621 89.92 270.832 89.92C270.043 89.92 269.445 90.208 269.04 90.784C268.645 91.3493 268.448 92.1067 268.448 93.056V94.656C268.448 95.6053 268.645 96.368 269.04 96.944C269.445 97.52 270.043 97.808 270.832 97.808ZM280.488 98.16C279.72 98.16 279.022 97.984 278.392 97.632C277.763 97.2693 277.262 96.7627 276.888 96.112C276.526 95.4507 276.344 94.6987 276.344 93.856C276.344 92.9707 276.536 92.2027 276.92 91.552C277.315 90.9013 277.827 90.4107 278.456 90.08C279.086 89.7387 279.763 89.568 280.488 89.568C281.096 89.568 281.651 89.6747 282.152 89.888C282.654 90.0907 283.048 90.3787 283.336 90.752C283.635 91.1253 283.784 91.5467 283.784 92.016C283.784 92.368 283.694 92.64 283.512 92.832C283.331 93.0133 283.091 93.104 282.792 93.104C282.504 93.104 282.264 93.008 282.072 92.816C281.88 92.624 281.784 92.384 281.784 92.096C281.944 91.9893 282.056 91.872 282.12 91.744C282.184 91.616 282.216 91.456 282.216 91.264C282.216 90.8693 282.056 90.5493 281.736 90.304C281.427 90.048 281.011 89.92 280.488 89.92C279.72 89.92 279.128 90.1973 278.712 90.752C278.307 91.296 278.104 92.064 278.104 93.056V94.656C278.104 95.6053 278.302 96.368 278.696 96.944C279.102 97.52 279.699 97.808 280.488 97.808C281.214 97.808 281.843 97.6053 282.376 97.2C282.92 96.784 283.256 96.24 283.384 95.568H283.752C283.603 96.3573 283.23 96.9867 282.632 97.456C282.046 97.9253 281.331 98.16 280.488 98.16ZM286.678 98V97.68L287.958 97.52V90.112H286.582L285.19 92.752H284.742L284.982 89.712H292.534L292.774 92.752H292.326L290.918 90.112H289.558V97.52L290.838 97.68V98H286.678ZM293.541 98V97.68L294.661 97.52V90.192L293.541 90.032V89.712H297.221V90.032L296.261 90.192V96.416L300.309 90.512V90.192L299.349 90.032V89.712H303.029V90.032L301.909 90.192V97.52L303.029 97.68V98H299.349V97.68L300.309 97.52V91.184L296.261 97.104V97.52L297.221 97.68V98H293.541Z"/>
  <rect width="314" height="1" transform="matrix(1 0 0 -1 0 82)"/>
  <defs>
    <filter id="filter0_bd_4_6" x="58.888" y="8.95999" width="196.319" height="72.48" filterUnits="userSpaceOnUse"
            color-interpolation-filters="sRGB">
      <feFlood flood-opacity="0" result="BackgroundImageFix"/>
      <feGaussianBlur in="BackgroundImage" stdDeviation="2"/>
      <feComposite in2="SourceAlpha" operator="in" result="effect1_backgroundBlur_4_6"/>
      <feColorMatrix in="SourceAlpha" type="matrix" values="0 0 0 0 0 0 0 0 0 0 0 0 0 0 0 0 0 0 127 0"
                     result="hardAlpha"/>
      <feOffset dy="4"/>
      <feGaussianBlur stdDeviation="2"/>
      <feComposite in2="hardAlpha" operator="out"/>
      <feColorMatrix type="matrix" values="0 0 0 0 0 0 0 0 0 0 0 0 0 0 0 0 0 0 0.25 0"/>
      <feBlend mode="normal" in2="effect1_backgroundBlur_4_6" result="effect2_dropShadow_4_6"/>
      <feBlend mode="normal" in="SourceGraphic" in2="effect2_dropShadow_4_6" result="shape"/>
    </filter>
  </defs>
</svg>
